<svg width="122" height="51" viewBox="0 0 122 51" fill="none" xmlns="http://www.w3.org/2000/svg">
<path d="M119.051 10.007C109.981 22.3041 91.4604 47.2264 89.9367 48.5381C88.413 49.8498 64.4506 49.0846 52.6599 48.5381L28.7157 41.0231L2.05063 1.26233L52.6599 7.54754L56.3332 5.08811L58.782 8.50399L69.2576 10.007H119.051Z" fill="#314FF8"/>
<path d="M2.05063 1.26233L44.4971 30.5022L71.4344 23.097M2.05063 1.26233L28.7157 41.0231L52.6599 48.5381C64.4506 49.0846 88.413 49.8498 89.9367 48.5381C91.4604 47.2264 109.981 22.3041 119.051 10.007M2.05063 1.26233L52.6599 7.54754M119.051 10.007H69.2576L58.782 8.50399M119.051 10.007L71.4344 23.097M52.6599 7.54754L56.3332 5.08811L58.782 8.50399M52.6599 7.54754L40.2797 24.6269L45.3134 28.3161L71.4344 23.097M58.782 8.50399L71.4344 23.097" stroke="white" stroke-width="2"/>
</svg>
