<svg width="790" height="176" viewBox="0 0 790 176" fill="none" xmlns="http://www.w3.org/2000/svg">
<path d="M73.7175 174.188C72.2869 175.261 71.6909 174.784 71.6909 173.95L72.0485 125.787C72.0485 118.753 72.4061 117.799 74.1944 115.415L82.8971 104.924C80.632 105.401 78.7246 105.52 75.7442 105.52C69.3065 105.52 64.1803 102.778 64.1803 93.0025C64.1803 85.7304 68.8297 75.7163 70.9756 75.7163C72.0485 75.7163 72.0485 76.9084 72.5254 77.8622C73.1214 79.0543 74.1944 79.6504 78.7246 79.6504C84.6853 79.6504 90.05 79.6504 90.05 88.7108C90.05 98.4864 89.0963 102.421 85.5198 106.831L77.1748 116.846C75.3865 119.23 75.5057 119.588 75.9826 124.475C77.1748 138.304 79.3206 160.717 79.9167 167.631C80.0359 169.181 79.9167 169.539 79.3206 169.896L73.7175 174.188ZM100.006 159.167C98.5758 159.167 98.5758 159.167 98.8142 157.617C99.6487 153.802 100.245 149.511 100.126 140.689C100.126 133.774 98.5758 126.383 98.5758 117.442C98.5758 111.481 100.006 106.712 101.675 103.136L101.318 102.897C97.5028 100.513 96.1915 96.2213 96.1915 92.168C96.1915 82.2731 104.417 75.7163 106.206 75.7163C107.517 75.7163 107.398 76.3124 107.517 77.6237C107.636 78.4582 108.709 79.7696 111.928 81.7963C117.054 84.8959 119.2 88.1147 119.2 93.3601C119.2 98.4864 113.001 110.05 111.093 110.05C110.497 110.05 110.259 109.812 109.663 108.977C109.186 108.262 107.517 106.712 105.49 105.52L103.94 104.566C102.987 107.666 102.629 111.362 102.629 114.342C102.629 121.853 103.583 127.694 104.656 133.178H144.593C144.593 113.15 138.632 105.043 130.645 105.043C125.399 105.043 119.438 108.024 113.239 127.337L110.855 126.74L126.234 78.4582C142.209 78.4582 147.692 88.83 147.692 107.428V157.856C147.692 159.167 147.454 159.167 146.262 159.167H100.006ZM166.685 146.769C166.208 146.769 165.97 145.576 165.97 144.504C165.97 139.854 168.712 136.158 175.745 134.251L186.594 131.271C193.389 129.244 193.508 127.933 192.435 122.329L191.243 114.7C189.693 106.474 188.024 105.52 179.918 105.52H164.777C156.552 105.52 154.048 99.6786 154.048 92.6449C154.048 83.8229 159.532 75.7163 160.843 75.7163C163.824 75.7163 158.101 79.6504 167.639 79.6504H185.402C194.939 79.6504 196.846 82.8692 196.846 101.586L197.085 117.203C197.204 129.721 195.893 133.774 185.521 137.112L174.434 140.689C171.334 141.642 169.308 143.431 168.235 144.861C167.4 145.934 167.162 146.769 166.685 146.769ZM155.479 144.861L156.075 126.264C156.432 118.634 157.625 115.057 160.128 112.196C161.201 111.004 162.751 110.05 163.228 110.17C163.943 110.408 163.466 111.123 162.632 112.435C161.797 114.104 161.201 116.369 161.201 119.945V141.523C161.201 148.795 163.943 151.18 167.758 151.18C171.811 151.18 174.434 150.226 177.534 149.034C181.706 147.365 184.806 146.173 188.621 146.411C192.793 146.649 197.442 149.511 197.442 155.71C197.442 158.452 196.608 159.644 196.25 159.644C195.416 159.644 195.773 159.167 194.343 157.736C193.27 156.663 191.005 155.948 189.336 155.948C186.594 155.948 184.09 156.783 179.799 157.975C175.865 159.048 171.454 160.598 166.566 160.598C158.698 160.598 155.002 155.71 155.479 144.861ZM206.381 159.286C205.308 159.405 205.189 158.69 206.023 157.617C207.215 155.948 207.931 151.776 207.931 147.961L207.692 125.31C207.692 115.892 211.984 112.435 213.772 112.315C214.964 112.196 215.203 112.673 214.13 114.342C213.295 115.534 212.222 119.349 212.58 123.879L214.011 143.431C215.084 156.425 207.454 159.286 206.381 159.286ZM203.639 91.9296C203.639 84.8959 206.619 75.7163 207.811 75.7163C209.48 75.7163 209.242 76.9084 209.719 77.8622C210.315 79.0543 211.388 79.6504 216.276 79.6504H245.245C248.821 79.6504 249.775 80.3657 249.775 83.9421V100.394C249.775 104.447 248.821 105.52 245.245 105.52L248.583 151.895C248.702 153.445 248.225 154.398 246.795 155.471L242.503 158.929C241.311 159.882 240.715 159.763 240.715 158.571L242.742 105.52H212.938C204.712 105.52 203.639 100.99 203.639 91.9296ZM286.236 159.167C284.567 159.167 284.567 159.167 284.687 157.26C284.806 154.994 285.402 127.456 285.402 121.853C285.402 114.938 286.713 110.289 291.124 105.043C285.64 103.493 283.494 98.0095 283.494 90.6182C283.494 82.5116 287.429 75.7163 289.336 75.7163C290.409 75.7163 290.528 76.9084 291.005 77.8622C291.601 79.0543 292.674 79.6504 297.562 79.6504H322.955C330.585 79.6504 332.134 83.2269 332.015 91.4527L331.419 156.663C331.419 159.167 331.419 159.167 329.392 159.167H286.236ZM290.886 133.178H328.319V115.415C328.319 107.785 327.008 105.52 317.948 105.52H294.82H294.582C291.124 109.573 290.886 114.223 290.886 121.972V133.178ZM354.898 159.525C354.302 160.121 353.706 159.882 353.706 159.048L355.375 109.812C355.494 106.593 354.54 105.282 350.964 105.282H348.818C340.234 105.282 338.208 100.871 338.208 93.0025C338.208 86.4457 343.215 75.7163 345.242 75.7163C346.195 75.7163 345.718 77.0277 346.314 78.2198C347.03 79.7696 350.129 80.6041 353.944 80.6041C361.097 80.6041 365.389 83.3461 365.389 92.168C365.389 96.579 363.601 99.917 361.812 102.421C358.355 107.189 358.355 108.381 358.713 115.177L360.978 152.372C361.097 153.922 360.859 154.398 360.382 154.875L354.898 159.525ZM382.581 105.52C373.401 105.52 371.732 102.421 371.732 91.9296C371.732 84.8959 375.19 75.7163 376.62 75.7163C378.289 75.7163 377.812 76.9084 378.289 77.8622C378.885 79.0543 379.958 79.6504 384.846 79.6504H413.815C417.511 79.6504 418.465 80.3657 418.465 83.9421V100.394C418.465 104.447 417.511 105.52 413.815 105.52H411.312L414.531 151.895C414.65 153.445 414.292 154.398 412.862 155.471L408.332 158.929C407.139 159.882 406.663 159.525 406.663 158.452L408.689 105.52H382.581ZM424.699 159.167L431.018 133.178H450.45C449.973 131.271 449.258 128.529 448.9 125.787C448.304 119.945 448.185 116.726 448.781 111.123C449.139 106.474 448.304 105.52 444.132 105.52H439.601C435.667 105.52 428.634 103.255 428.634 91.3335C428.634 83.9421 434.117 75.7163 436.502 75.7163C437.455 75.7163 437.575 76.9084 438.052 77.8622C438.528 79.0543 439.482 79.6504 443.416 79.6504C450.331 79.6504 454.026 82.2731 454.026 90.3798C454.026 97.5327 451.642 107.07 451.642 114.938C451.642 124.237 453.43 128.052 456.172 135.92L450.569 159.167H424.699ZM504.26 159.644C503.306 160.359 503.187 159.644 503.187 158.571L504.26 111.481C504.379 107.07 503.068 105.52 498.537 105.52H474.694C466.826 105.52 462.415 101.824 462.415 93.4794C462.415 81.3194 467.422 75.7163 468.972 75.7163C469.687 75.7163 469.807 76.9084 470.164 77.8622C470.641 79.0543 472.072 79.6504 476.96 79.6504H495.199C503.664 79.6504 506.644 84.0614 506.883 90.1413L509.386 152.133C509.505 154.279 509.148 154.637 508.194 155.471L504.26 159.644ZM518.357 159.286C517.284 159.405 517.165 158.69 517.999 157.617C519.192 155.948 519.907 151.776 519.907 147.961L519.668 125.31C519.668 115.892 523.96 112.435 525.748 112.315C526.941 112.196 527.179 112.673 526.106 114.342C525.272 115.534 524.199 119.349 524.556 123.879L525.987 143.431C527.06 156.425 519.43 159.286 518.357 159.286ZM515.615 91.9296C515.615 84.8959 518.595 75.7163 519.788 75.7163C521.457 75.7163 521.218 76.9084 521.695 77.8622C522.291 79.0543 523.364 79.6504 528.252 79.6504H557.221C560.798 79.6504 561.751 80.3657 561.751 83.9421V100.394C561.751 104.447 560.798 105.52 557.221 105.52L560.559 151.895C560.678 153.445 560.202 154.398 558.771 155.471L554.479 158.929C553.287 159.882 552.691 159.763 552.691 158.571L554.718 105.52H524.914C516.688 105.52 515.615 100.99 515.615 91.9296ZM605.604 126.621C607.869 121.614 611.088 113.15 611.088 110.766C611.088 108.5 609.538 107.308 604.889 105.401C598.689 103.017 595.471 99.0825 595.471 92.168C595.471 84.1806 602.504 75.8355 604.531 75.8355C605.842 75.8355 605.485 77.0277 606.081 78.1006C606.677 79.0543 608.107 79.7696 611.088 80.9618C615.856 82.8692 620.029 86.3265 620.029 92.6449C620.029 104.805 612.757 117.084 608.346 127.575L605.604 126.621ZM633.831 105.52C627.393 105.52 626.201 103.613 626.201 97.7711V75.8355C626.201 71.3053 628.466 66.1791 636.215 66.1791C640.388 66.1791 642.772 67.3712 648.256 69.7555C653.025 72.0206 657.436 74.6433 659.701 74.6433C661.727 74.6433 662.085 73.5704 662.085 71.5438C662.085 68.5634 662.8 67.3712 665.542 67.3712C668.284 67.3712 669.834 67.0136 670.192 66.2983C670.669 65.7022 670.788 65.2253 671.503 65.2253C672.338 65.2253 673.411 67.0136 673.411 69.5171C673.411 75.3586 669.357 77.6237 662.562 77.6237C658.628 77.6237 654.455 76.4316 650.521 75.4779C645.872 74.4049 642.295 73.6896 638.838 73.6896C634.666 73.6896 633.116 75.3586 633.116 77.0277C633.116 78.5775 634.666 79.6504 638.6 79.6504H665.542C671.026 79.6504 673.411 82.0347 673.411 86.9225L673.53 110.885C673.53 120.303 671.026 123.76 663.993 128.767L648.614 139.496C645.037 142 644.68 143.907 645.872 146.292C646.825 148.318 648.256 150.345 648.256 153.683C648.256 157.736 645.395 160.359 641.58 160.359C637.169 160.359 635.023 157.14 635.023 152.372C635.023 147.126 638.123 143.192 644.203 138.9L661.37 126.502C666.496 122.806 667.688 120.064 666.377 113.746L665.542 109.812C664.827 105.759 663.277 105.52 657.316 105.52H633.831ZM679.75 159.167L686.069 133.178H721.714L721.595 122.329C721.356 108.024 718.495 105.52 705.382 105.52H694.414C686.069 105.52 682.254 102.182 682.254 92.0488C682.254 85.2535 686.307 75.7163 689.288 75.7163C690.003 75.7163 690.122 76.9084 690.599 77.8622C691.195 79.0543 692.268 79.6504 697.156 79.6504H713.727C719.807 79.6504 724.814 83.5845 725.052 99.3209L725.648 132.82L719.091 159.167H679.75Z" fill="#EC1717"/>
<path d="M163.073 28.0633C158.822 34.6204 153.994 41.4657 148.59 48.5993C143.258 55.7328 137.781 62.5421 132.161 69.0272C129.351 72.3418 126.072 75.9806 122.325 79.9437H121.461C127.081 73.6028 133.17 65.7847 139.727 56.4894C146.284 47.1942 152.481 37.7188 158.317 28.0633H163.073ZM159.722 34.8726C162.461 32.4227 165.055 30.5492 167.505 29.2522C169.954 27.9552 172.152 27.3067 174.098 27.3067C177.412 27.3067 179.538 28.5677 180.475 31.0896C181.411 33.6116 181.159 37.1063 179.718 41.5738C178.349 45.9692 175.935 50.9411 172.476 56.4894C169.594 61.101 166.388 65.2443 162.857 68.9191C159.326 72.594 155.759 75.5123 152.157 77.674C148.554 79.7636 145.239 80.8084 142.213 80.8084C139.403 80.8084 137.709 79.4754 137.133 76.8093C136.484 74.0711 136.953 70.4683 138.538 66.0008C140.123 61.4613 142.537 56.5975 145.78 51.4095H146.428C143.258 56.3813 140.88 61.101 139.295 65.5685C137.709 69.9639 137.133 73.4947 137.565 76.1608C137.998 78.8268 139.475 80.1599 141.997 80.1599C143.87 80.1599 146.248 79.1511 149.13 77.1335C152.085 75.0439 155.183 72.2337 158.425 68.703C161.74 65.1722 164.874 61.2451 167.829 56.9218C171.432 51.5176 174.098 46.6177 175.827 42.2223C177.556 37.8269 178.241 34.3682 177.881 31.8462C177.52 29.3242 176.079 28.0633 173.557 28.0633C171.9 28.0633 169.882 28.7478 167.505 30.1169C165.199 31.4139 162.785 33.1792 160.263 35.413L159.722 34.8726ZM208.512 28.0633C205.918 32.2425 202.315 37.3225 197.703 43.3031C193.092 49.2118 188.876 54.3638 185.057 58.7592C183.904 60.0562 182.715 61.3532 181.49 62.6502H180.734C182.896 60.3444 186.498 55.3005 191.542 47.5184C196.658 39.7364 200.657 33.2513 203.54 28.0633H208.512ZM225.476 28.0633C222.882 32.2425 219.279 37.3225 214.667 43.3031C210.056 49.2118 205.84 54.3638 202.021 58.7592C200.869 60.0562 199.68 61.3532 198.455 62.6502H197.698C199.86 60.3444 203.463 55.3005 208.506 47.5184C213.622 39.7364 217.622 33.2513 220.504 28.0633H225.476ZM210.231 81.0246C208.501 81.0246 207.276 80.4841 206.556 79.4033C205.835 78.3225 205.763 76.8453 206.34 74.9718C206.844 73.0263 208.069 70.9007 210.015 68.5949H210.663C208.862 70.8286 207.673 72.8462 207.096 74.6476C206.448 76.449 206.448 77.8541 207.096 78.8629C207.673 79.8717 208.718 80.3761 210.231 80.3761C213.473 80.3761 217.58 77.3137 222.552 71.1889C227.596 65.0641 234.514 54.8321 243.305 40.493C249.357 30.7654 254.834 22.9473 259.733 17.0387C264.705 11.1301 268.921 6.98682 272.379 4.60897C275.838 2.15906 278.684 0.934104 280.918 0.934104C284.881 0.934104 285.205 4.53691 281.891 11.7425C278.576 18.8761 272.992 25.6854 265.138 32.1705C257.283 38.6555 248.925 41.898 240.062 41.898C237.036 41.898 234.514 41.1415 232.496 39.6283C230.479 38.1151 229.109 36.2777 228.389 34.116C227.668 31.9543 227.56 30.0088 228.065 28.2794H228.713C228.209 29.7926 228.281 31.594 228.929 33.6836C229.65 35.7733 230.947 37.5747 232.82 39.0879C234.766 40.529 237.18 41.2495 240.062 41.2495C248.565 41.2495 256.599 38.1151 264.165 31.8462C271.803 25.5773 277.351 18.9842 280.81 12.0668C284.341 5.07733 284.377 1.58261 280.918 1.58261C279.116 1.58261 276.883 2.73551 274.217 5.04131C271.623 7.3471 268.2 11.3462 263.949 17.0387C259.769 22.659 254.509 30.4771 248.168 40.493C242.476 50.0044 237.18 57.7864 232.28 63.8392C227.452 69.8919 223.201 74.2873 219.526 77.0254C215.851 79.6915 212.753 81.0246 210.231 81.0246ZM256.563 81.0246C253.248 81.0246 250.978 79.7276 249.753 77.1335C248.456 74.5395 248.745 70.7926 250.618 65.8928C252.419 60.9929 256.058 55.2645 261.534 48.7074C266.218 42.7988 272.847 36.2777 281.422 29.1441C289.997 21.9385 299.508 15.7777 309.956 10.6617L310.281 11.2021C300.697 16.0299 292.411 21.6863 285.421 28.1713C278.504 34.6564 271.55 42.1502 264.561 50.6529C259.805 56.4174 256.346 61.5694 254.185 66.1089C252.023 70.6485 251.158 74.1792 251.591 76.7012C252.023 79.1511 253.572 80.3761 256.238 80.3761C260.346 80.3761 265.065 78.3225 270.397 74.2153C275.73 70.108 280.521 64.8479 284.773 58.4349C289.096 51.9499 291.834 45.4288 292.987 38.8717H293.744C292.735 45.3567 290.069 51.8778 285.745 58.4349C281.494 64.9921 276.63 70.3963 271.154 74.6476C265.678 78.8989 260.814 81.0246 256.563 81.0246ZM320.7 28.0633C318.106 32.2425 314.503 37.3225 309.891 43.3031C305.28 49.2118 301.064 54.3638 297.245 58.7592C296.092 60.0562 294.904 61.3532 293.679 62.6502H292.922C295.084 60.3444 298.686 55.3005 303.73 47.5184C308.846 39.7364 312.846 33.2513 315.728 28.0633H320.7ZM350.202 30.333C347.968 30.333 345.338 31.3058 342.311 33.2513C339.357 35.1968 336.295 37.7188 333.124 40.8172C330.026 43.8436 327.036 47.0501 324.153 50.4367C319.326 56.2012 315.723 61.3172 313.345 65.7847C310.967 70.2522 309.922 73.7469 310.21 76.2689C310.499 78.7188 312.156 79.9437 315.182 79.9437C317.488 79.9437 320.082 79.2592 322.964 77.8901C325.847 76.5211 328.837 74.5035 331.935 71.8374C335.034 69.1713 337.988 65.8928 340.798 62.0017L341.339 62.5421C338.601 66.217 335.682 69.4235 332.584 72.1617C329.558 74.8277 326.531 76.9174 323.505 78.4305C320.55 79.8717 317.776 80.5922 315.182 80.5922C312.012 80.5922 309.85 79.4033 308.697 77.0254C307.472 74.6476 307.688 71.1529 309.346 66.5413C311.003 61.9297 314.318 56.4534 319.29 50.1125C321.884 46.7979 325.018 43.5914 328.693 40.493C332.44 37.3225 336.223 34.7285 340.042 32.7109C343.861 30.6933 347.247 29.6845 350.202 29.6845C352.652 29.6845 353.804 31.0536 353.66 33.7917C353.588 36.5299 352.507 39.304 350.418 42.1142C348.4 44.8524 346.202 46.2214 343.825 46.2214C341.807 46.2214 341.123 44.9244 341.771 42.3304C342.42 39.7364 344.077 36.4578 346.743 32.4947C349.409 28.4596 352.579 24.4244 356.254 20.3893H359.929C356.47 24.2083 353.192 27.9912 350.094 31.7381C347.067 35.413 344.797 38.6555 343.284 41.4657C341.771 44.2038 341.951 45.5729 343.825 45.5729C345.842 45.5729 347.788 44.3119 349.661 41.79C351.607 39.1959 352.724 36.6379 353.012 34.116C353.3 31.594 352.363 30.333 350.202 30.333ZM379.433 28.0633C376.838 32.2425 373.236 37.3225 368.624 43.3031C364.012 49.2118 359.797 54.3638 355.978 58.7592C354.825 60.0562 353.636 61.3532 352.411 62.6502H351.655C353.817 60.3444 357.419 55.3005 362.463 47.5184C367.579 39.7364 371.578 33.2513 374.461 28.0633H379.433ZM386.453 31.8462C390.56 29.4684 394.451 28.0633 398.126 27.6309C401.801 27.1265 404.647 27.6309 406.665 29.1441C408.682 30.5852 409.439 32.819 408.934 35.8453C408.358 39.0158 406.557 42.1502 403.53 45.2487C400.576 48.3471 397.081 50.869 393.046 52.8146C389.011 54.7601 385.408 55.7328 382.238 55.7328C379.499 55.7328 377.806 55.0483 377.158 53.6792C376.581 52.3102 377.05 50.9411 378.563 49.572C380.148 48.203 382.31 47.5184 385.048 47.5184C387.786 47.5184 389.912 48.239 391.425 49.6801C393.01 51.0492 393.803 52.8866 393.803 55.1924C393.803 57.4982 393.046 59.9842 391.533 62.6502C390.164 65.0281 388.182 67.442 385.588 69.8919C383.066 72.3418 380.436 74.5035 377.698 76.3769C374.96 78.1783 372.798 79.3673 371.213 79.9437H370.348C373.086 78.5026 376.041 76.2689 379.211 73.2425C382.382 70.2161 385.192 66.6133 387.642 62.4341C390.092 58.3269 391.101 54.9402 390.668 52.2741C390.236 49.536 388.362 48.1669 385.048 48.1669C382.598 48.1669 380.652 48.7434 379.211 49.8963C377.77 51.0492 377.302 52.2021 377.806 53.355C378.311 54.5079 379.788 55.0843 382.238 55.0843C385.336 55.0843 388.579 54.0035 391.965 51.8418C395.424 49.6801 398.378 47.0501 400.828 43.9517C403.35 40.7812 404.827 37.935 405.26 35.413C405.692 32.891 405.188 30.9815 403.746 29.6845C402.305 28.3875 400.108 27.9552 397.153 28.3875C394.271 28.8198 390.884 30.1529 386.993 32.3866L386.453 31.8462ZM452.41 28.0633C448.158 34.6204 443.331 41.4657 437.926 48.5993C432.594 55.7328 427.118 62.5421 421.498 69.0272C418.687 72.3418 415.409 75.9806 411.662 79.9437H410.797C416.418 73.6028 422.506 65.7847 429.063 56.4894C435.621 47.1942 441.817 37.7188 447.654 28.0633H452.41ZM449.059 34.8726C451.797 32.4227 454.391 30.5492 456.841 29.2522C459.291 27.9552 461.489 27.3067 463.434 27.3067C466.749 27.3067 468.875 28.5677 469.811 31.0896C470.748 33.6116 470.496 37.1063 469.055 41.5738C467.686 45.9692 465.272 50.9411 461.813 56.4894C458.931 61.101 455.724 65.2443 452.194 68.9191C448.663 72.594 445.096 75.5123 441.493 77.674C437.89 79.7636 434.576 80.8084 431.549 80.8084C428.739 80.8084 427.046 79.4754 426.469 76.8093C425.821 74.0711 426.289 70.4683 427.875 66.0008C429.46 61.4613 431.874 56.5975 435.116 51.4095H435.765C432.594 56.3813 430.216 61.101 428.631 65.5685C427.046 69.9639 426.469 73.4947 426.902 76.1608C427.334 78.8268 428.811 80.1599 431.333 80.1599C433.207 80.1599 435.585 79.1511 438.467 77.1335C441.421 75.0439 444.52 72.2337 447.762 68.703C451.077 65.1722 454.211 61.2451 457.165 56.9218C460.768 51.5176 463.434 46.6177 465.164 42.2223C466.893 37.8269 467.577 34.3682 467.217 31.8462C466.857 29.3242 465.416 28.0633 462.894 28.0633C461.237 28.0633 459.219 28.7478 456.841 30.1169C454.535 31.4139 452.121 33.1792 449.599 35.413L449.059 34.8726ZM497.848 28.0633C495.254 32.2425 491.651 37.3225 487.04 43.3031C482.428 49.2118 478.213 54.3638 474.394 58.7592C473.241 60.0562 472.052 61.3532 470.827 62.6502H470.07C472.232 60.3444 475.835 55.3005 480.879 47.5184C485.995 39.7364 489.994 33.2513 492.876 28.0633H497.848ZM500.761 33.5756C504.652 30.4051 508.868 28.3875 513.407 27.5228C517.947 26.5861 521.55 27.0545 524.216 28.9279C526.882 30.8014 527.674 33.8638 526.593 38.1151C524.72 45.3207 520.108 52.6705 512.759 60.1643C505.409 67.6581 497.771 74.2513 489.845 79.9437H489.088C493.7 76.1968 498.347 71.8734 503.031 66.9736C507.715 62.0738 511.894 56.9218 515.569 51.5176C519.244 46.1133 521.55 41.0334 522.486 36.2777C523.135 33.0351 522.45 30.7293 520.433 29.3603C518.487 27.9912 515.713 27.739 512.11 28.6037C508.579 29.3963 504.941 31.2337 501.194 34.116L500.761 33.5756ZM576.477 29.036C572.658 29.9727 569.163 29.9727 565.993 29.036C562.894 28.0272 560.589 26.3699 559.075 24.0641C557.634 21.6863 557.274 19.0562 557.994 16.174C558.283 15.0211 558.751 13.9763 559.4 13.0395C560.12 12.0308 560.985 11.2381 561.994 10.6617C563.074 10.0132 564.263 9.68893 565.56 9.68893C567.866 9.68893 569.704 10.5896 571.073 12.391C572.514 14.1204 573.234 16.4982 573.234 19.5246C573.306 22.4789 572.586 25.6133 571.073 28.9279C569.632 32.0984 567.434 35.377 564.48 38.7636C561.525 42.0782 558.211 44.8884 554.536 47.1942C550.861 49.4279 547.258 50.5448 543.727 50.5448C540.557 50.5448 538.611 49.7161 537.891 48.0589C537.17 46.3295 537.603 44.6002 539.188 42.8708C540.845 41.1415 543.043 40.2768 545.781 40.2768C548.663 40.2768 551.041 41.3216 552.915 43.4112C554.788 45.5009 555.725 48.275 555.725 51.7337C555.797 55.1204 554.788 58.6511 552.698 62.326C550.825 65.7126 548.267 68.8471 545.024 71.7293C541.782 74.5395 538.323 76.8093 534.648 78.5386C531.045 80.1959 527.695 81.0246 524.596 81.0246C521.93 81.0246 519.625 80.3761 517.679 79.079C515.734 77.71 514.292 75.8365 513.356 73.4587H514.004C515.013 75.6203 516.382 77.3137 518.111 78.5386C519.841 79.7636 521.822 80.3761 524.056 80.3761C526.65 80.3761 529.532 79.5474 532.703 77.8901C535.873 76.1608 538.9 73.855 541.782 70.9727C544.664 68.0905 547.006 64.956 548.807 61.5694C550.681 58.1827 551.762 54.8682 552.05 51.6256C552.41 48.3831 551.978 45.7891 550.753 43.8436C549.528 41.826 547.726 40.8172 545.349 40.8172C543.187 40.8172 541.35 41.5738 539.836 43.087C538.395 44.6002 537.891 46.1133 538.323 47.6265C538.755 49.1397 540.269 49.8963 542.863 49.8963C546.249 49.8963 549.672 48.5632 553.131 45.8972C556.661 43.159 559.76 39.9525 562.426 36.2777C565.164 32.6028 567.218 29.3242 568.587 26.442C569.668 24.0641 570.28 21.6503 570.424 19.2003C570.568 16.6784 570.136 14.5888 569.127 12.9315C568.19 11.2742 566.749 10.4455 564.804 10.4455C563.723 10.4455 562.75 10.7337 561.886 11.3102C561.021 11.8866 560.3 12.6432 559.724 13.58C559.219 14.4446 558.823 15.3814 558.535 16.3902C557.814 19.1283 558.175 21.6142 559.616 23.848C561.129 26.0817 563.435 27.6669 566.533 28.6037C569.632 29.4684 573.054 29.3603 576.801 28.2794L576.477 29.036ZM593.686 28.0633C589.435 34.5483 584.607 41.3937 579.203 48.5993C573.798 55.8049 568.286 62.6502 562.666 69.1353C559.784 72.5219 556.541 76.1247 552.938 79.9437H552.074C557.694 73.6028 563.783 65.7847 570.34 56.4894C576.897 47.1942 583.094 37.7188 588.93 28.0633H593.686ZM570.188 83.9428C572.998 82.3576 576.132 80.0518 579.591 77.0254C583.05 73.927 586.472 70.4683 589.859 66.6494C593.318 62.7583 596.38 58.8673 599.046 54.9762C603.009 49.1397 605.531 44.2038 606.612 40.1687C607.693 36.0615 608.161 32.0264 608.017 28.0633H608.666C608.81 29.4323 608.882 31.3778 608.882 33.8998C608.738 38.3673 608.053 42.5826 606.828 46.5457C605.603 50.4367 604.09 53.8594 602.289 56.8137C599.623 61.1371 596.452 65.1001 592.777 68.703C589.103 72.3058 585.392 75.4042 581.645 77.9982C577.826 80.5202 574.151 82.6819 570.62 84.4833L570.188 83.9428ZM611.368 79.9437C611.296 79.3673 611.26 78.4305 611.26 77.1335C611.188 72.8102 611.8 68.4508 613.097 64.0553C614.466 59.6599 617.024 54.9762 620.771 50.0044C623.149 46.8339 625.923 43.6274 629.094 40.3849C632.264 37.1423 635.687 34.08 639.362 31.1977C643.109 28.2434 646.82 25.6854 650.494 23.5237L650.819 24.0641C648.008 25.7935 644.982 28.2074 641.74 31.3058C638.497 34.3321 635.327 37.6828 632.228 41.3576C629.202 44.9604 626.356 48.6353 623.69 52.3822C619.078 58.9393 615.979 64.3436 614.394 68.5949C612.881 72.7741 612.016 76.5571 611.8 79.9437H611.368ZM608.666 28.0633L611.692 79.9437H611.26L608.017 28.0633H608.666Z" fill="#EC1717"/>
</svg>
